<svg width="300" height="88" viewBox="0 0 300 88" fill="none" xmlns="http://www.w3.org/2000/svg">
  <rect x="4" y="6" width="76" height="76" rx="24" fill="url(#paint0_linear_1_2)"/>
  <rect x="10" y="12" width="64" height="64" rx="19" stroke="white" stroke-opacity="0.3" stroke-width="2"/>
  <path d="M26 29.5H41.5C49.5081 29.5 56 35.9919 56 44C56 52.0081 49.5081 58.5 41.5 58.5H37V68H26V29.5Z" fill="white"/>
  <path d="M52 20H60V28H68V36H60V44H52V36H44V28H52V20Z" fill="#DFF7F0"/>
  <path d="M103 33.2H119.064C127.196 33.2 132.504 38.244 132.504 46.244C132.504 54.244 127.196 59.42 119.064 59.42H111.848V70H103V33.2ZM117.9 52.116C121.852 52.116 123.744 49.916 123.744 46.244C123.744 42.572 121.852 40.504 117.9 40.504H111.848V52.116H117.9Z" fill="#16324A"/>
  <path d="M137.605 70V33.2H146.453L163.485 55.528V33.2H172.157V70H163.837L146.277 46.992V70H137.605Z" fill="#16324A"/>
  <path d="M179.074 70V33.2H205.562V40.504H187.922V47.828H203.01V54.956H187.922V62.696H206.442V70H179.074Z" fill="#16324A"/>
  <path d="M226.573 70.704C217.109 70.704 210.001 64.3 210.001 54.296V33.2H218.849V54.12C218.849 59.164 221.885 62.52 226.573 62.52C231.261 62.52 234.297 59.164 234.297 54.12V33.2H243.145V54.296C243.145 64.3 236.037 70.704 226.573 70.704Z" fill="#16324A"/>
  <path d="M250.23 70V33.2H265.934C274.242 33.2 279.198 37.416 279.198 44.456C279.198 49.256 276.822 52.916 272.65 54.72L281.058 70H271.242L263.978 56.216H259.078V70H250.23ZM259.078 49.308H264.438C268.214 49.308 270.174 47.372 270.174 44.456C270.174 41.408 268.214 40.02 264.438 40.02H259.078V49.308Z" fill="#16324A"/>
  <defs>
    <linearGradient id="paint0_linear_1_2" x1="14" y1="10" x2="72" y2="80" gradientUnits="userSpaceOnUse">
      <stop stop-color="#1E7491"/>
      <stop offset="1" stop-color="#3A9E8C"/>
    </linearGradient>
  </defs>
</svg>
